<mxfile host="Electron" agent="Mozilla/5.0 (Windows NT 10.0; Win64; x64) AppleWebKit/537.36 (KHTML, like Gecko) draw.io/25.0.2 Chrome/128.0.6613.186 Electron/32.2.5 Safari/537.36" version="25.0.2">
  <diagram name="Seite-1" id="pcAqdWYxcJBWCHd6vt6f">
    <mxGraphModel dx="2868" dy="3000" grid="1" gridSize="10" guides="1" tooltips="1" connect="1" arrows="1" fold="1" page="1" pageScale="1" pageWidth="827" pageHeight="1169" math="0" shadow="0">
      <root>
        <mxCell id="0" />
        <mxCell id="1" parent="0" />
        <mxCell id="Df34fUN9E6ZzwjAj1WfK-28" value="" style="rounded=1;whiteSpace=wrap;html=1;fillColor=#cce5ff;strokeColor=#36393d;" parent="1" vertex="1">
          <mxGeometry x="-650" y="-210" width="2254" height="1280" as="geometry" />
        </mxCell>
        <mxCell id="Df34fUN9E6ZzwjAj1WfK-1" value="Mitglied" style="rounded=0;whiteSpace=wrap;html=1;" parent="1" vertex="1">
          <mxGeometry x="-330" y="720" width="120" height="60" as="geometry" />
        </mxCell>
        <mxCell id="dfBbCzrbdvESABe2VbRE-3" style="edgeStyle=orthogonalEdgeStyle;rounded=0;orthogonalLoop=1;jettySize=auto;html=1;exitX=0.5;exitY=0;exitDx=0;exitDy=0;entryX=0.5;entryY=1;entryDx=0;entryDy=0;" parent="1" source="Df34fUN9E6ZzwjAj1WfK-2" target="AAhEL-M5UL7VtdJNsia_-33" edge="1">
          <mxGeometry relative="1" as="geometry" />
        </mxCell>
        <mxCell id="Df34fUN9E6ZzwjAj1WfK-2" value="Boot" style="rounded=0;whiteSpace=wrap;html=1;" parent="1" vertex="1">
          <mxGeometry x="420" y="700" width="120" height="60" as="geometry" />
        </mxCell>
        <mxCell id="dfBbCzrbdvESABe2VbRE-2" style="edgeStyle=orthogonalEdgeStyle;rounded=0;orthogonalLoop=1;jettySize=auto;html=1;exitX=1;exitY=1;exitDx=0;exitDy=0;entryX=0;entryY=0;entryDx=0;entryDy=0;" parent="1" source="Df34fUN9E6ZzwjAj1WfK-3" target="Df34fUN9E6ZzwjAj1WfK-2" edge="1">
          <mxGeometry relative="1" as="geometry" />
        </mxCell>
        <mxCell id="dfBbCzrbdvESABe2VbRE-5" style="edgeStyle=orthogonalEdgeStyle;rounded=0;orthogonalLoop=1;jettySize=auto;html=1;exitX=0;exitY=1;exitDx=0;exitDy=0;entryX=1;entryY=0.5;entryDx=0;entryDy=0;" parent="1" source="Df34fUN9E6ZzwjAj1WfK-3" target="Df34fUN9E6ZzwjAj1WfK-1" edge="1">
          <mxGeometry relative="1" as="geometry" />
        </mxCell>
        <mxCell id="Df34fUN9E6ZzwjAj1WfK-3" value="Reservation" style="rounded=0;whiteSpace=wrap;html=1;" parent="1" vertex="1">
          <mxGeometry x="86.12" y="440" width="120" height="60" as="geometry" />
        </mxCell>
        <mxCell id="dfBbCzrbdvESABe2VbRE-1" style="edgeStyle=orthogonalEdgeStyle;rounded=0;orthogonalLoop=1;jettySize=auto;html=1;exitX=0;exitY=1;exitDx=0;exitDy=0;entryX=1;entryY=0;entryDx=0;entryDy=0;" parent="1" source="Df34fUN9E6ZzwjAj1WfK-5" target="Df34fUN9E6ZzwjAj1WfK-2" edge="1">
          <mxGeometry relative="1" as="geometry" />
        </mxCell>
        <mxCell id="dfBbCzrbdvESABe2VbRE-4" style="edgeStyle=orthogonalEdgeStyle;rounded=0;orthogonalLoop=1;jettySize=auto;html=1;exitX=0;exitY=0.25;exitDx=0;exitDy=0;entryX=1;entryY=0.5;entryDx=0;entryDy=0;" parent="1" source="Df34fUN9E6ZzwjAj1WfK-5" target="Df34fUN9E6ZzwjAj1WfK-3" edge="1">
          <mxGeometry relative="1" as="geometry" />
        </mxCell>
        <mxCell id="Df34fUN9E6ZzwjAj1WfK-5" value="Damage" style="rounded=0;whiteSpace=wrap;html=1;" parent="1" vertex="1">
          <mxGeometry x="730" y="440" width="120" height="60" as="geometry" />
        </mxCell>
        <mxCell id="Df34fUN9E6ZzwjAj1WfK-6" value="" style="rounded=1;whiteSpace=wrap;html=1;fillColor=#cce5ff;strokeColor=#36393d;" parent="1" vertex="1">
          <mxGeometry x="-1040" y="-1600" width="2520" height="1160" as="geometry" />
        </mxCell>
        <mxCell id="Df34fUN9E6ZzwjAj1WfK-9" style="edgeStyle=orthogonalEdgeStyle;rounded=0;orthogonalLoop=1;jettySize=auto;html=1;exitX=0.5;exitY=1;exitDx=0;exitDy=0;entryX=0.5;entryY=0;entryDx=0;entryDy=0;fillColor=#f5f5f5;gradientColor=#b3b3b3;strokeColor=#666666;" parent="1" source="Df34fUN9E6ZzwjAj1WfK-7" target="Df34fUN9E6ZzwjAj1WfK-8" edge="1">
          <mxGeometry relative="1" as="geometry" />
        </mxCell>
        <mxCell id="Df34fUN9E6ZzwjAj1WfK-7" value="Start" style="rounded=0;whiteSpace=wrap;html=1;fontSize=21;" parent="1" vertex="1">
          <mxGeometry x="-987" y="-1510" width="160" height="80" as="geometry" />
        </mxCell>
        <mxCell id="Df34fUN9E6ZzwjAj1WfK-11" style="edgeStyle=orthogonalEdgeStyle;rounded=0;orthogonalLoop=1;jettySize=auto;html=1;exitX=0.5;exitY=1;exitDx=0;exitDy=0;entryX=0.5;entryY=0;entryDx=0;entryDy=0;fillColor=#f5f5f5;gradientColor=#b3b3b3;strokeColor=#666666;" parent="1" source="Df34fUN9E6ZzwjAj1WfK-8" target="Df34fUN9E6ZzwjAj1WfK-10" edge="1">
          <mxGeometry relative="1" as="geometry" />
        </mxCell>
        <mxCell id="Df34fUN9E6ZzwjAj1WfK-13" style="edgeStyle=orthogonalEdgeStyle;rounded=0;orthogonalLoop=1;jettySize=auto;html=1;exitX=1;exitY=0.5;exitDx=0;exitDy=0;entryX=0;entryY=0.5;entryDx=0;entryDy=0;fillColor=#f5f5f5;gradientColor=#b3b3b3;strokeColor=#666666;" parent="1" source="Df34fUN9E6ZzwjAj1WfK-8" target="Df34fUN9E6ZzwjAj1WfK-12" edge="1">
          <mxGeometry relative="1" as="geometry" />
        </mxCell>
        <mxCell id="Df34fUN9E6ZzwjAj1WfK-8" value="Home" style="rounded=0;whiteSpace=wrap;html=1;fontSize=21;fillColor=#b1ddf0;strokeColor=#10739e;" parent="1" vertex="1">
          <mxGeometry x="-987" y="-1070" width="160" height="80" as="geometry" />
        </mxCell>
        <mxCell id="Df34fUN9E6ZzwjAj1WfK-15" style="edgeStyle=orthogonalEdgeStyle;rounded=0;orthogonalLoop=1;jettySize=auto;html=1;exitX=0.5;exitY=1;exitDx=0;exitDy=0;entryX=0.25;entryY=0;entryDx=0;entryDy=0;fillColor=#f5f5f5;gradientColor=#b3b3b3;strokeColor=#666666;" parent="1" source="Df34fUN9E6ZzwjAj1WfK-10" target="Df34fUN9E6ZzwjAj1WfK-14" edge="1">
          <mxGeometry relative="1" as="geometry" />
        </mxCell>
        <mxCell id="Df34fUN9E6ZzwjAj1WfK-10" value="Neue Reservation" style="rounded=0;whiteSpace=wrap;html=1;fontSize=21;fillColor=#d0cee2;strokeColor=#56517e;fontColor=#1C1C1C;" parent="1" vertex="1">
          <mxGeometry x="-987" y="-960" width="160" height="80" as="geometry" />
        </mxCell>
        <mxCell id="Df34fUN9E6ZzwjAj1WfK-17" style="edgeStyle=orthogonalEdgeStyle;rounded=0;orthogonalLoop=1;jettySize=auto;html=1;exitX=1;exitY=0.5;exitDx=0;exitDy=0;fillColor=#f5f5f5;strokeColor=#666666;entryX=0;entryY=0.5;entryDx=0;entryDy=0;" parent="1" source="Df34fUN9E6ZzwjAj1WfK-12" target="Df34fUN9E6ZzwjAj1WfK-18" edge="1">
          <mxGeometry relative="1" as="geometry" />
        </mxCell>
        <mxCell id="Df34fUN9E6ZzwjAj1WfK-12" value="Meine Reservationen" style="rounded=0;whiteSpace=wrap;html=1;fontSize=21;fillColor=#d0cee2;strokeColor=#56517e;fontColor=#1C1C1C;" parent="1" vertex="1">
          <mxGeometry x="-780" y="-990" width="160" height="80" as="geometry" />
        </mxCell>
        <mxCell id="Df34fUN9E6ZzwjAj1WfK-14" value="Benutzer gibt daten ein:&lt;br&gt;&lt;br&gt;Vor/Nachname&lt;div&gt;Datum&lt;/div&gt;&lt;div&gt;Start Zeit&lt;/div&gt;&lt;div&gt;Schluss Zeit&lt;/div&gt;&lt;div&gt;Boot&lt;/div&gt;&lt;div&gt;&lt;br&gt;&lt;/div&gt;" style="rounded=0;whiteSpace=wrap;html=1;fontSize=21;fillColor=#9673a6;strokeColor=#9673a6;align=left;verticalAlign=top;perimeterSpacing=4;" parent="1" vertex="1">
          <mxGeometry x="-987" y="-850" width="277" height="270" as="geometry" />
        </mxCell>
        <mxCell id="Df34fUN9E6ZzwjAj1WfK-16" value="Benutzer gibt schaden ein:&lt;br&gt;&lt;br&gt;&lt;div&gt;Art (Loch, Teile)&lt;/div&gt;&lt;div&gt;Wo (Am Boot)&lt;br&gt;Ursache&lt;/div&gt;&lt;div&gt;&lt;br&gt;&lt;/div&gt;" style="rounded=0;whiteSpace=wrap;html=1;fontSize=21;fillColor=#9673a6;strokeColor=#9673a6;align=left;verticalAlign=top;perimeterSpacing=4;" parent="1" vertex="1">
          <mxGeometry x="-587.12" y="-769" width="277" height="195" as="geometry" />
        </mxCell>
        <mxCell id="Df34fUN9E6ZzwjAj1WfK-19" style="edgeStyle=orthogonalEdgeStyle;rounded=0;orthogonalLoop=1;jettySize=auto;html=1;exitX=0.5;exitY=1;exitDx=0;exitDy=0;entryX=0.5;entryY=0;entryDx=0;entryDy=0;fillColor=#f5f5f5;strokeColor=#666666;" parent="1" source="Df34fUN9E6ZzwjAj1WfK-18" target="Df34fUN9E6ZzwjAj1WfK-16" edge="1">
          <mxGeometry relative="1" as="geometry" />
        </mxCell>
        <mxCell id="Df34fUN9E6ZzwjAj1WfK-18" value="Reservation auswÃ¤hlen" style="rhombus;whiteSpace=wrap;html=1;" parent="1" vertex="1">
          <mxGeometry x="-401.12" y="-994" width="202.5" height="90" as="geometry" />
        </mxCell>
        <mxCell id="Df34fUN9E6ZzwjAj1WfK-24" style="edgeStyle=orthogonalEdgeStyle;rounded=0;orthogonalLoop=1;jettySize=auto;html=1;exitX=1;exitY=0.5;exitDx=0;exitDy=0;entryX=0.5;entryY=1;entryDx=0;entryDy=0;fillColor=#f5f5f5;strokeColor=#666666;" parent="1" source="Df34fUN9E6ZzwjAj1WfK-20" target="Df34fUN9E6ZzwjAj1WfK-21" edge="1">
          <mxGeometry relative="1" as="geometry">
            <mxPoint x="-550" y="-1110" as="targetPoint" />
          </mxGeometry>
        </mxCell>
        <mxCell id="Df34fUN9E6ZzwjAj1WfK-25" style="edgeStyle=orthogonalEdgeStyle;rounded=0;orthogonalLoop=1;jettySize=auto;html=1;exitX=0;exitY=0.5;exitDx=0;exitDy=0;entryX=1;entryY=0.5;entryDx=0;entryDy=0;fillColor=#f5f5f5;strokeColor=#666666;" parent="1" source="Df34fUN9E6ZzwjAj1WfK-20" target="Df34fUN9E6ZzwjAj1WfK-8" edge="1">
          <mxGeometry relative="1" as="geometry">
            <mxPoint x="-800" y="-980" as="targetPoint" />
          </mxGeometry>
        </mxCell>
        <mxCell id="Df34fUN9E6ZzwjAj1WfK-20" value="Mitteilung senden" style="rounded=0;whiteSpace=wrap;html=1;fontSize=21;fillColor=#d0cee2;strokeColor=#56517e;fontColor=#1C1C1C;" parent="1" vertex="1">
          <mxGeometry x="-780" y="-1150" width="160" height="80" as="geometry" />
        </mxCell>
        <mxCell id="Df34fUN9E6ZzwjAj1WfK-21" value="Benutzer sendet Mitteilung:&lt;br&gt;&lt;br&gt;&lt;div&gt;Titel&lt;br&gt;Mitteilung&lt;/div&gt;&lt;div&gt;&lt;br&gt;&lt;/div&gt;" style="rounded=0;whiteSpace=wrap;html=1;fontSize=21;fillColor=#9673a6;strokeColor=#9673a6;align=left;verticalAlign=top;perimeterSpacing=4;" parent="1" vertex="1">
          <mxGeometry x="-587.25" y="-1480" width="277" height="195" as="geometry" />
        </mxCell>
        <mxCell id="Df34fUN9E6ZzwjAj1WfK-26" value="Benutzer lÃ¶scht die Reservation:&lt;br&gt;&lt;div&gt;&lt;br&gt;&lt;/div&gt;&lt;div&gt;&lt;br&gt;&lt;/div&gt;" style="rounded=0;whiteSpace=wrap;html=1;fontSize=21;fillColor=#9673a6;strokeColor=#9673a6;align=left;verticalAlign=top;perimeterSpacing=4;" parent="1" vertex="1">
          <mxGeometry x="-289.87" y="-769" width="277" height="195" as="geometry" />
        </mxCell>
        <mxCell id="Df34fUN9E6ZzwjAj1WfK-27" style="edgeStyle=orthogonalEdgeStyle;rounded=0;orthogonalLoop=1;jettySize=auto;html=1;exitX=0.5;exitY=1;exitDx=0;exitDy=0;entryX=0.5;entryY=0;entryDx=0;entryDy=0;fillColor=#f5f5f5;strokeColor=#666666;" parent="1" source="Df34fUN9E6ZzwjAj1WfK-18" target="Df34fUN9E6ZzwjAj1WfK-26" edge="1">
          <mxGeometry relative="1" as="geometry">
            <mxPoint x="-151.62" y="-904" as="sourcePoint" />
          </mxGeometry>
        </mxCell>
        <mxCell id="AAhEL-M5UL7VtdJNsia_-13" style="edgeStyle=orthogonalEdgeStyle;rounded=0;orthogonalLoop=1;jettySize=auto;html=1;exitX=1;exitY=0.5;exitDx=0;exitDy=0;entryX=0;entryY=0.5;entryDx=0;entryDy=0;" parent="1" source="AAhEL-M5UL7VtdJNsia_-1" target="Df34fUN9E6ZzwjAj1WfK-1" edge="1">
          <mxGeometry relative="1" as="geometry" />
        </mxCell>
        <mxCell id="AAhEL-M5UL7VtdJNsia_-1" value="Email" style="ellipse;whiteSpace=wrap;html=1;" parent="1" vertex="1">
          <mxGeometry x="-516.12" y="620" width="135" height="60" as="geometry" />
        </mxCell>
        <mxCell id="AAhEL-M5UL7VtdJNsia_-14" style="edgeStyle=orthogonalEdgeStyle;rounded=0;orthogonalLoop=1;jettySize=auto;html=1;exitX=1;exitY=0.5;exitDx=0;exitDy=0;entryX=0;entryY=0.5;entryDx=0;entryDy=0;" parent="1" source="AAhEL-M5UL7VtdJNsia_-3" target="Df34fUN9E6ZzwjAj1WfK-1" edge="1">
          <mxGeometry relative="1" as="geometry" />
        </mxCell>
        <mxCell id="AAhEL-M5UL7VtdJNsia_-3" value="VorName" style="ellipse;whiteSpace=wrap;html=1;" parent="1" vertex="1">
          <mxGeometry x="-516.12" y="690" width="135" height="60" as="geometry" />
        </mxCell>
        <mxCell id="AAhEL-M5UL7VtdJNsia_-6" style="edgeStyle=orthogonalEdgeStyle;rounded=0;orthogonalLoop=1;jettySize=auto;html=1;exitX=1;exitY=0.5;exitDx=0;exitDy=0;entryX=0;entryY=0.5;entryDx=0;entryDy=0;" parent="1" source="AAhEL-M5UL7VtdJNsia_-5" target="Df34fUN9E6ZzwjAj1WfK-1" edge="1">
          <mxGeometry relative="1" as="geometry" />
        </mxCell>
        <mxCell id="AAhEL-M5UL7VtdJNsia_-5" value="Nachname" style="ellipse;whiteSpace=wrap;html=1;" parent="1" vertex="1">
          <mxGeometry x="-516.12" y="760" width="135" height="60" as="geometry" />
        </mxCell>
        <mxCell id="AAhEL-M5UL7VtdJNsia_-11" style="edgeStyle=orthogonalEdgeStyle;rounded=0;orthogonalLoop=1;jettySize=auto;html=1;exitX=1;exitY=0.5;exitDx=0;exitDy=0;entryX=0;entryY=0.5;entryDx=0;entryDy=0;" parent="1" source="AAhEL-M5UL7VtdJNsia_-7" target="Df34fUN9E6ZzwjAj1WfK-1" edge="1">
          <mxGeometry relative="1" as="geometry" />
        </mxCell>
        <mxCell id="AAhEL-M5UL7VtdJNsia_-7" value="State" style="ellipse;whiteSpace=wrap;html=1;" parent="1" vertex="1">
          <mxGeometry x="-516.12" y="830" width="135" height="60" as="geometry" />
        </mxCell>
        <mxCell id="AAhEL-M5UL7VtdJNsia_-9" style="edgeStyle=orthogonalEdgeStyle;rounded=0;orthogonalLoop=1;jettySize=auto;html=1;exitX=1;exitY=0.5;exitDx=0;exitDy=0;entryX=0;entryY=0.5;entryDx=0;entryDy=0;" parent="1" source="AAhEL-M5UL7VtdJNsia_-8" target="Df34fUN9E6ZzwjAj1WfK-1" edge="1">
          <mxGeometry relative="1" as="geometry" />
        </mxCell>
        <mxCell id="AAhEL-M5UL7VtdJNsia_-8" value="&lt;u&gt;Mitgliedernummer&lt;/u&gt;" style="ellipse;whiteSpace=wrap;html=1;" parent="1" vertex="1">
          <mxGeometry x="-517.24" y="550" width="136.12" height="60" as="geometry" />
        </mxCell>
        <mxCell id="AAhEL-M5UL7VtdJNsia_-12" style="edgeStyle=orthogonalEdgeStyle;rounded=0;orthogonalLoop=1;jettySize=auto;html=1;exitX=1;exitY=0.5;exitDx=0;exitDy=0;entryX=0;entryY=0.5;entryDx=0;entryDy=0;" parent="1" source="AAhEL-M5UL7VtdJNsia_-10" target="Df34fUN9E6ZzwjAj1WfK-1" edge="1">
          <mxGeometry relative="1" as="geometry" />
        </mxCell>
        <mxCell id="AAhEL-M5UL7VtdJNsia_-10" value="Role" style="ellipse;whiteSpace=wrap;html=1;" parent="1" vertex="1">
          <mxGeometry x="-516.12" y="900" width="135" height="60" as="geometry" />
        </mxCell>
        <mxCell id="AAhEL-M5UL7VtdJNsia_-15" value="Type" style="ellipse;whiteSpace=wrap;html=1;" parent="1" vertex="1">
          <mxGeometry x="810" y="820" width="135" height="60" as="geometry" />
        </mxCell>
        <mxCell id="AAhEL-M5UL7VtdJNsia_-16" value="&lt;u&gt;BootNummer&lt;/u&gt;" style="ellipse;whiteSpace=wrap;html=1;" parent="1" vertex="1">
          <mxGeometry x="-60" y="820" width="136.12" height="60" as="geometry" />
        </mxCell>
        <mxCell id="AAhEL-M5UL7VtdJNsia_-17" value="Numberplate" style="ellipse;whiteSpace=wrap;html=1;" parent="1" vertex="1">
          <mxGeometry x="236.12" y="820" width="135" height="60" as="geometry" />
        </mxCell>
        <mxCell id="AAhEL-M5UL7VtdJNsia_-18" value="Description" style="ellipse;whiteSpace=wrap;html=1;" parent="1" vertex="1">
          <mxGeometry x="380" y="820" width="135" height="60" as="geometry" />
        </mxCell>
        <mxCell id="AAhEL-M5UL7VtdJNsia_-23" value="Price" style="ellipse;whiteSpace=wrap;html=1;" parent="1" vertex="1">
          <mxGeometry x="530" y="820" width="135" height="60" as="geometry" />
        </mxCell>
        <mxCell id="AAhEL-M5UL7VtdJNsia_-24" value="Reason" style="ellipse;whiteSpace=wrap;html=1;" parent="1" vertex="1">
          <mxGeometry x="930.56" y="330" width="135" height="60" as="geometry" />
        </mxCell>
        <mxCell id="AAhEL-M5UL7VtdJNsia_-25" value="&lt;u&gt;SchadenNR&lt;/u&gt;" style="ellipse;whiteSpace=wrap;html=1;" parent="1" vertex="1">
          <mxGeometry x="930" y="250" width="136.12" height="60" as="geometry" />
        </mxCell>
        <mxCell id="AAhEL-M5UL7VtdJNsia_-26" value="Description" style="ellipse;whiteSpace=wrap;html=1;" parent="1" vertex="1">
          <mxGeometry x="930" y="400" width="135" height="60" as="geometry" />
        </mxCell>
        <mxCell id="AAhEL-M5UL7VtdJNsia_-28" value="State" style="ellipse;whiteSpace=wrap;html=1;" parent="1" vertex="1">
          <mxGeometry x="931.12" y="470" width="135" height="60" as="geometry" />
        </mxCell>
        <mxCell id="AAhEL-M5UL7VtdJNsia_-29" value="CreateDate" style="ellipse;whiteSpace=wrap;html=1;" parent="1" vertex="1">
          <mxGeometry x="931.12" y="540" width="135" height="60" as="geometry" />
        </mxCell>
        <mxCell id="AAhEL-M5UL7VtdJNsia_-30" value="Availability" style="ellipse;whiteSpace=wrap;html=1;" parent="1" vertex="1">
          <mxGeometry x="670" y="820" width="135" height="60" as="geometry" />
        </mxCell>
        <mxCell id="AAhEL-M5UL7VtdJNsia_-31" value="FixedDate" style="ellipse;whiteSpace=wrap;html=1;" parent="1" vertex="1">
          <mxGeometry x="930" y="610" width="135" height="60" as="geometry" />
        </mxCell>
        <mxCell id="AAhEL-M5UL7VtdJNsia_-32" value="FixedPerson" style="ellipse;whiteSpace=wrap;html=1;fillColor=#76608a;fontColor=#ffffff;strokeColor=#432D57;" parent="1" vertex="1">
          <mxGeometry x="931.12" y="680" width="135" height="60" as="geometry" />
        </mxCell>
        <mxCell id="AAhEL-M5UL7VtdJNsia_-33" value="Pictures" style="rounded=0;whiteSpace=wrap;html=1;" parent="1" vertex="1">
          <mxGeometry x="420" y="40" width="120" height="60" as="geometry" />
        </mxCell>
        <mxCell id="AAhEL-M5UL7VtdJNsia_-34" value="PictureID" style="ellipse;whiteSpace=wrap;html=1;" parent="1" vertex="1">
          <mxGeometry x="580" width="135" height="60" as="geometry" />
        </mxCell>
        <mxCell id="AAhEL-M5UL7VtdJNsia_-35" value="Picture" style="ellipse;whiteSpace=wrap;html=1;" parent="1" vertex="1">
          <mxGeometry x="580" y="70" width="135" height="60" as="geometry" />
        </mxCell>
        <mxCell id="AAhEL-M5UL7VtdJNsia_-36" value="From" style="ellipse;whiteSpace=wrap;html=1;" parent="1" vertex="1">
          <mxGeometry x="-127.87" y="170" width="135" height="60" as="geometry" />
        </mxCell>
        <mxCell id="AAhEL-M5UL7VtdJNsia_-37" value="&lt;u&gt;ReservationNum&lt;/u&gt;" style="ellipse;whiteSpace=wrap;html=1;" parent="1" vertex="1">
          <mxGeometry x="-128.99" y="100" width="136.12" height="60" as="geometry" />
        </mxCell>
        <mxCell id="AAhEL-M5UL7VtdJNsia_-38" value="To" style="ellipse;whiteSpace=wrap;html=1;" parent="1" vertex="1">
          <mxGeometry x="-127.87" y="240" width="135" height="60" as="geometry" />
        </mxCell>
        <mxCell id="AAhEL-M5UL7VtdJNsia_-39" value="NumBlocks" style="ellipse;whiteSpace=wrap;html=1;" parent="1" vertex="1">
          <mxGeometry x="-127.87" y="310" width="135" height="60" as="geometry" />
        </mxCell>
        <mxCell id="AAhEL-M5UL7VtdJNsia_-40" value="NumBlocks" style="ellipse;whiteSpace=wrap;html=1;" parent="1" vertex="1">
          <mxGeometry x="-127.87" y="380" width="135" height="60" as="geometry" />
        </mxCell>
        <mxCell id="AAhEL-M5UL7VtdJNsia_-42" value="State" style="ellipse;whiteSpace=wrap;html=1;" parent="1" vertex="1">
          <mxGeometry x="-127.87" y="450" width="135" height="60" as="geometry" />
        </mxCell>
        <mxCell id="AAhEL-M5UL7VtdJNsia_-43" value="Checklistquestion" style="ellipse;whiteSpace=wrap;html=1;" parent="1" vertex="1">
          <mxGeometry x="-127.87" y="520" width="135" height="60" as="geometry" />
        </mxCell>
        <mxCell id="AAhEL-M5UL7VtdJNsia_-44" value="Checklistquestion" style="ellipse;whiteSpace=wrap;html=1;" parent="1" vertex="1">
          <mxGeometry x="-269.87" y="100" width="135" height="60" as="geometry" />
        </mxCell>
        <mxCell id="AAhEL-M5UL7VtdJNsia_-46" value="Checklistquestion" style="ellipse;whiteSpace=wrap;html=1;" parent="1" vertex="1">
          <mxGeometry x="-269.87" y="170" width="135" height="60" as="geometry" />
        </mxCell>
        <mxCell id="AAhEL-M5UL7VtdJNsia_-48" value="" style="shape=flexArrow;endArrow=classic;html=1;rounded=0;exitX=0.5;exitY=1;exitDx=0;exitDy=0;fillColor=#647687;strokeColor=#314354;" parent="1" source="AAhEL-M5UL7VtdJNsia_-46" edge="1">
          <mxGeometry width="50" height="50" relative="1" as="geometry">
            <mxPoint x="-240" y="420" as="sourcePoint" />
            <mxPoint x="-202" y="290" as="targetPoint" />
          </mxGeometry>
        </mxCell>
        <mxCell id="AAhEL-M5UL7VtdJNsia_-49" value="CreateDate" style="ellipse;whiteSpace=wrap;html=1;shadow=1;" parent="1" vertex="1">
          <mxGeometry x="-269.87" y="310" width="135" height="60" as="geometry" />
        </mxCell>
        <mxCell id="AAhEL-M5UL7VtdJNsia_-51" value="Name" style="ellipse;whiteSpace=wrap;html=1;" parent="1" vertex="1">
          <mxGeometry x="93.62" y="820" width="135" height="60" as="geometry" />
        </mxCell>
        <mxCell id="AAhEL-M5UL7VtdJNsia_-52" value="Payed" style="ellipse;whiteSpace=wrap;html=1;" parent="1" vertex="1">
          <mxGeometry x="-269.87" y="380" width="135" height="60" as="geometry" />
        </mxCell>
        <mxCell id="AAhEL-M5UL7VtdJNsia_-53" value="TotalPrice" style="ellipse;whiteSpace=wrap;html=1;" parent="1" vertex="1">
          <mxGeometry x="-269.87" y="450" width="135" height="60" as="geometry" />
        </mxCell>
        <mxCell id="RUs2iSeBuz9C_Oz7V9Xn-10" style="edgeStyle=orthogonalEdgeStyle;rounded=0;orthogonalLoop=1;jettySize=auto;html=1;exitX=1;exitY=0.5;exitDx=0;exitDy=0;entryX=0;entryY=0.5;entryDx=0;entryDy=0;strokeColor=#000000;" edge="1" parent="1" source="RUs2iSeBuz9C_Oz7V9Xn-1" target="RUs2iSeBuz9C_Oz7V9Xn-9">
          <mxGeometry relative="1" as="geometry" />
        </mxCell>
        <mxCell id="RUs2iSeBuz9C_Oz7V9Xn-1" value="&lt;font style=&quot;font-size: 18px;&quot;&gt;&lt;span style=&quot;white-space: pre;&quot;&gt;&#x9;&lt;/span&gt;Mach Rservation&lt;/font&gt;" style="shape=parallelogram;perimeter=parallelogramPerimeter;whiteSpace=wrap;html=1;fixedSize=1;fillColor=#6a00ff;fontColor=#ffffff;strokeColor=#3700CC;align=left;" vertex="1" parent="1">
          <mxGeometry x="545" y="-1430" width="535" height="150" as="geometry" />
        </mxCell>
        <mxCell id="RUs2iSeBuz9C_Oz7V9Xn-2" value="&lt;font style=&quot;font-size: 19px;&quot;&gt;Alles Normal&lt;/font&gt;" style="rounded=1;whiteSpace=wrap;html=1;" vertex="1" parent="1">
          <mxGeometry x="760" y="-1400" width="230" height="90" as="geometry" />
        </mxCell>
        <mxCell id="RUs2iSeBuz9C_Oz7V9Xn-3" value="&lt;font style=&quot;font-size: 18px;&quot;&gt;&lt;span style=&quot;white-space: pre;&quot;&gt;&#x9;&lt;/span&gt;Ãbernimmt Boot&lt;/font&gt;" style="shape=parallelogram;perimeter=parallelogramPerimeter;whiteSpace=wrap;html=1;fixedSize=1;fillColor=#6a00ff;fontColor=#ffffff;strokeColor=#3700CC;align=left;" vertex="1" parent="1">
          <mxGeometry x="522.5" y="-1220" width="535" height="150" as="geometry" />
        </mxCell>
        <mxCell id="RUs2iSeBuz9C_Oz7V9Xn-4" value="&lt;font style=&quot;font-size: 19px;&quot;&gt;Alles Normal&lt;/font&gt;" style="rounded=1;whiteSpace=wrap;html=1;" vertex="1" parent="1">
          <mxGeometry x="737.5" y="-1190" width="230" height="90" as="geometry" />
        </mxCell>
        <mxCell id="RUs2iSeBuz9C_Oz7V9Xn-5" value="&lt;font style=&quot;font-size: 18px;&quot;&gt;&lt;span style=&quot;white-space: pre;&quot;&gt;&#x9;&lt;/span&gt;Gibt Boot ab&lt;/font&gt;" style="shape=parallelogram;perimeter=parallelogramPerimeter;whiteSpace=wrap;html=1;fixedSize=1;fillColor=#6a00ff;fontColor=#ffffff;strokeColor=#3700CC;align=left;" vertex="1" parent="1">
          <mxGeometry x="515" y="-790" width="535" height="150" as="geometry" />
        </mxCell>
        <mxCell id="RUs2iSeBuz9C_Oz7V9Xn-6" value="&lt;span style=&quot;font-size: 19px;&quot;&gt;Fertig&lt;/span&gt;" style="rounded=1;whiteSpace=wrap;html=1;" vertex="1" parent="1">
          <mxGeometry x="730" y="-760" width="230" height="90" as="geometry" />
        </mxCell>
        <mxCell id="RUs2iSeBuz9C_Oz7V9Xn-7" value="&lt;font style=&quot;font-size: 16px;&quot;&gt;&lt;span style=&quot;white-space: pre;&quot;&gt;&#x9;&lt;/span&gt;Benutzt Boot&lt;/font&gt;" style="shape=dataStorage;whiteSpace=wrap;html=1;fixedSize=1;fillColor=#6a00ff;fontColor=#ffffff;strokeColor=#3700CC;align=left;" vertex="1" parent="1">
          <mxGeometry x="515" y="-1002.5" width="537.5" height="165" as="geometry" />
        </mxCell>
        <mxCell id="RUs2iSeBuz9C_Oz7V9Xn-8" value="&lt;font style=&quot;font-size: 19px;&quot;&gt;Alles Normal&lt;/font&gt;" style="rounded=1;whiteSpace=wrap;html=1;" vertex="1" parent="1">
          <mxGeometry x="737.5" y="-965" width="230" height="90" as="geometry" />
        </mxCell>
        <mxCell id="RUs2iSeBuz9C_Oz7V9Xn-11" style="edgeStyle=orthogonalEdgeStyle;rounded=0;orthogonalLoop=1;jettySize=auto;html=1;exitX=0.5;exitY=1;exitDx=0;exitDy=0;entryX=0.5;entryY=0;entryDx=0;entryDy=0;strokeColor=#000000;" edge="1" parent="1" source="RUs2iSeBuz9C_Oz7V9Xn-9" target="RUs2iSeBuz9C_Oz7V9Xn-3">
          <mxGeometry relative="1" as="geometry" />
        </mxCell>
        <mxCell id="RUs2iSeBuz9C_Oz7V9Xn-9" value="&lt;font style=&quot;font-size: 26px;&quot;&gt;Bezahlt&lt;/font&gt;" style="shape=hexagon;perimeter=hexagonPerimeter2;whiteSpace=wrap;html=1;fixedSize=1;fillColor=#1ba1e2;fontColor=#ffffff;strokeColor=#006EAF;" vertex="1" parent="1">
          <mxGeometry x="1170" y="-1430" width="210" height="130" as="geometry" />
        </mxCell>
        <mxCell id="RUs2iSeBuz9C_Oz7V9Xn-12" style="edgeStyle=orthogonalEdgeStyle;rounded=0;orthogonalLoop=1;jettySize=auto;html=1;exitX=0.5;exitY=1;exitDx=0;exitDy=0;entryX=0.543;entryY=-0.003;entryDx=0;entryDy=0;strokeColor=#000000;entryPerimeter=0;" edge="1" parent="1" source="RUs2iSeBuz9C_Oz7V9Xn-3" target="RUs2iSeBuz9C_Oz7V9Xn-7">
          <mxGeometry relative="1" as="geometry">
            <mxPoint x="1285" y="-1035" as="sourcePoint" />
            <mxPoint x="800" y="-965" as="targetPoint" />
          </mxGeometry>
        </mxCell>
        <mxCell id="RUs2iSeBuz9C_Oz7V9Xn-13" style="edgeStyle=orthogonalEdgeStyle;rounded=0;orthogonalLoop=1;jettySize=auto;html=1;exitX=0.5;exitY=1;exitDx=0;exitDy=0;entryX=0.587;entryY=0.005;entryDx=0;entryDy=0;strokeColor=#000000;entryPerimeter=0;" edge="1" parent="1" source="RUs2iSeBuz9C_Oz7V9Xn-7" target="RUs2iSeBuz9C_Oz7V9Xn-5">
          <mxGeometry relative="1" as="geometry">
            <mxPoint x="800" y="-1060" as="sourcePoint" />
            <mxPoint x="817" y="-993" as="targetPoint" />
          </mxGeometry>
        </mxCell>
        <mxCell id="RUs2iSeBuz9C_Oz7V9Xn-15" value="Text" style="text;html=1;align=center;verticalAlign=middle;resizable=0;points=[];autosize=1;strokeColor=none;fillColor=none;" vertex="1" parent="1">
          <mxGeometry x="1255" y="-1392" width="50" height="30" as="geometry" />
        </mxCell>
        <mxCell id="RUs2iSeBuz9C_Oz7V9Xn-16" value="Reservation wurde erstellt" style="shape=callout;whiteSpace=wrap;html=1;perimeter=calloutPerimeter;" vertex="1" parent="1">
          <mxGeometry x="260" y="-1450" width="190" height="120" as="geometry" />
        </mxCell>
        <mxCell id="RUs2iSeBuz9C_Oz7V9Xn-17" value="Reservation wurde vor ort angenommen" style="shape=callout;whiteSpace=wrap;html=1;perimeter=calloutPerimeter;" vertex="1" parent="1">
          <mxGeometry x="260" y="-1330" width="190" height="120" as="geometry" />
        </mxCell>
        <mxCell id="RUs2iSeBuz9C_Oz7V9Xn-18" value="Reservation vurde durgefÃ¼hrt und das boot zurÃ¼ckgegeben" style="shape=callout;whiteSpace=wrap;html=1;perimeter=calloutPerimeter;" vertex="1" parent="1">
          <mxGeometry x="250" y="-1180" width="190" height="120" as="geometry" />
        </mxCell>
        <mxCell id="RUs2iSeBuz9C_Oz7V9Xn-19" value="Reservation wurde gecancelled" style="shape=callout;whiteSpace=wrap;html=1;perimeter=calloutPerimeter;" vertex="1" parent="1">
          <mxGeometry x="240" y="-1020" width="190" height="120" as="geometry" />
        </mxCell>
      </root>
    </mxGraphModel>
  </diagram>
</mxfile>
